<svg width="128" height="128" fill="none" xmlns="http://www.w3.org/2000/svg"><mask id="a" maskUnits="userSpaceOnUse" x="0" y="0" width="128" height="128"><circle cx="64" cy="64" r="64" fill="#C4C4C4"/></mask><g mask="url(#a)" fill="#000" fill-opacity=".25"><circle cx="8" cy="14" r="3"/><circle cx="16" cy="14" r="3"/><circle cx="24" cy="14" r="3"/><circle cx="32" cy="14" r="3"/><circle cx="40" cy="14" r="3"/><circle cx="48" cy="14" r="3"/><circle cx="56" cy="14" r="3"/><circle cx="64" cy="14" r="3"/><circle cx="72" cy="14" r="3"/><circle cx="80" cy="14" r="3"/><circle cx="88" cy="14" r="3"/><circle cx="96" cy="14" r="3"/><circle cx="104" cy="14" r="3"/><circle cx="112" cy="14" r="3"/><circle cx="120" cy="14" r="3"/><circle cx="4" cy="5" r="2"/><circle cx="12" cy="5" r="2"/><circle cx="20" cy="5" r="2"/><circle cx="28" cy="5" r="2"/><circle cx="36" cy="5" r="2"/><circle cx="44" cy="5" r="2"/><circle cx="52" cy="5" r="2"/><circle cx="60" cy="5" r="2"/><circle cx="68" cy="5" r="2"/><circle cx="76" cy="5" r="2"/><circle cx="84" cy="5" r="2"/><circle cx="92" cy="5" r="2"/><circle cx="100" cy="5" r="2"/><circle cx="108" cy="5" r="2"/><circle cx="116" cy="5" r="2"/><circle cx="124" cy="5" r="2"/><circle cx="8" cy="32" r="3"/><circle cx="16" cy="32" r="3"/><circle cx="24" cy="32" r="3"/><circle cx="32" cy="32" r="3"/><circle cx="40" cy="32" r="3"/><circle cx="48" cy="32" r="3"/><circle cx="56" cy="32" r="3"/><circle cx="64" cy="32" r="3"/><circle cx="72" cy="32" r="3"/><circle cx="80" cy="32" r="3"/><circle cx="88" cy="32" r="3"/><circle cx="96" cy="32" r="3"/><circle cx="104" cy="32" r="3"/><circle cx="112" cy="32" r="3"/><circle cx="120" cy="32" r="3"/><circle cx="4" cy="23" r="2"/><circle cx="12" cy="23" r="2"/><circle cx="20" cy="23" r="2"/><circle cx="28" cy="23" r="2"/><circle cx="36" cy="23" r="2"/><circle cx="44" cy="23" r="2"/><circle cx="52" cy="23" r="2"/><circle cx="60" cy="23" r="2"/><circle cx="68" cy="23" r="2"/><circle cx="76" cy="23" r="2"/><circle cx="84" cy="23" r="2"/><circle cx="92" cy="23" r="2"/><circle cx="100" cy="23" r="2"/><circle cx="108" cy="23" r="2"/><circle cx="116" cy="23" r="2"/><circle cx="124" cy="23" r="2"/><circle cx="8" cy="50" r="3"/><circle cx="16" cy="50" r="3"/><circle cx="24" cy="50" r="3"/><circle cx="32" cy="50" r="3"/><circle cx="40" cy="50" r="3"/><circle cx="48" cy="50" r="3"/><circle cx="56" cy="50" r="3"/><circle cx="64" cy="50" r="3"/><circle cx="72" cy="50" r="3"/><circle cx="80" cy="50" r="3"/><circle cx="88" cy="50" r="3"/><circle cx="96" cy="50" r="3"/><circle cx="104" cy="50" r="3"/><circle cx="112" cy="50" r="3"/><circle cx="120" cy="50" r="3"/><circle cx="4" cy="41" r="2"/><circle cx="12" cy="41" r="2"/><circle cx="20" cy="41" r="2"/><circle cx="28" cy="41" r="2"/><circle cx="36" cy="41" r="2"/><circle cx="44" cy="41" r="2"/><circle cx="52" cy="41" r="2"/><circle cx="60" cy="41" r="2"/><circle cx="68" cy="41" r="2"/><circle cx="76" cy="41" r="2"/><circle cx="84" cy="41" r="2"/><circle cx="92" cy="41" r="2"/><circle cx="100" cy="41" r="2"/><circle cx="108" cy="41" r="2"/><circle cx="116" cy="41" r="2"/><circle cx="124" cy="41" r="2"/><circle cx="8" cy="68" r="3"/><circle cx="16" cy="68" r="3"/><circle cx="24" cy="68" r="3"/><circle cx="32" cy="68" r="3"/><circle cx="40" cy="68" r="3"/><circle cx="48" cy="68" r="3"/><circle cx="56" cy="68" r="3"/><circle cx="64" cy="68" r="3"/><circle cx="72" cy="68" r="3"/><circle cx="80" cy="68" r="3"/><circle cx="88" cy="68" r="3"/><circle cx="96" cy="68" r="3"/><circle cx="104" cy="68" r="3"/><circle cx="112" cy="68" r="3"/><circle cx="120" cy="68" r="3"/><circle cx="4" cy="59" r="2"/><circle cx="12" cy="59" r="2"/><circle cx="20" cy="59" r="2"/><circle cx="28" cy="59" r="2"/><circle cx="36" cy="59" r="2"/><circle cx="44" cy="59" r="2"/><circle cx="52" cy="59" r="2"/><circle cx="60" cy="59" r="2"/><circle cx="68" cy="59" r="2"/><circle cx="76" cy="59" r="2"/><circle cx="84" cy="59" r="2"/><circle cx="92" cy="59" r="2"/><circle cx="100" cy="59" r="2"/><circle cx="108" cy="59" r="2"/><circle cx="116" cy="59" r="2"/><circle cx="124" cy="59" r="2"/><circle cx="8" cy="85" r="3"/><circle cx="16" cy="85" r="3"/><circle cx="24" cy="85" r="3"/><circle cx="32" cy="85" r="3"/><circle cx="40" cy="85" r="3"/><circle cx="48" cy="85" r="3"/><circle cx="56" cy="85" r="3"/><circle cx="64" cy="85" r="3"/><circle cx="72" cy="85" r="3"/><circle cx="80" cy="85" r="3"/><circle cx="88" cy="85" r="3"/><circle cx="96" cy="85" r="3"/><circle cx="104" cy="85" r="3"/><circle cx="112" cy="85" r="3"/><circle cx="120" cy="85" r="3"/><circle cx="4" cy="76" r="2"/><circle cx="12" cy="76" r="2"/><circle cx="20" cy="76" r="2"/><circle cx="28" cy="76" r="2"/><circle cx="36" cy="76" r="2"/><circle cx="44" cy="76" r="2"/><circle cx="52" cy="76" r="2"/><circle cx="60" cy="76" r="2"/><circle cx="68" cy="76" r="2"/><circle cx="76" cy="76" r="2"/><circle cx="84" cy="76" r="2"/><circle cx="92" cy="76" r="2"/><circle cx="100" cy="76" r="2"/><circle cx="108" cy="76" r="2"/><circle cx="116" cy="76" r="2"/><circle cx="124" cy="76" r="2"/><circle cx="8" cy="103" r="3"/><circle cx="16" cy="103" r="3"/><circle cx="24" cy="103" r="3"/><circle cx="32" cy="103" r="3"/><circle cx="40" cy="103" r="3"/><circle cx="48" cy="103" r="3"/><circle cx="56" cy="103" r="3"/><circle cx="64" cy="103" r="3"/><circle cx="72" cy="103" r="3"/><circle cx="80" cy="103" r="3"/><circle cx="88" cy="103" r="3"/><circle cx="96" cy="103" r="3"/><circle cx="104" cy="103" r="3"/><circle cx="112" cy="103" r="3"/><circle cx="120" cy="103" r="3"/><circle cx="4" cy="94" r="2"/><circle cx="12" cy="94" r="2"/><circle cx="20" cy="94" r="2"/><circle cx="28" cy="94" r="2"/><circle cx="36" cy="94" r="2"/><circle cx="44" cy="94" r="2"/><circle cx="52" cy="94" r="2"/><circle cx="60" cy="94" r="2"/><circle cx="68" cy="94" r="2"/><circle cx="76" cy="94" r="2"/><circle cx="84" cy="94" r="2"/><circle cx="92" cy="94" r="2"/><circle cx="100" cy="94" r="2"/><circle cx="108" cy="94" r="2"/><circle cx="116" cy="94" r="2"/><circle cx="124" cy="94" r="2"/><circle cx="8" cy="121" r="3"/><circle cx="16" cy="121" r="3"/><circle cx="24" cy="121" r="3"/><circle cx="32" cy="121" r="3"/><circle cx="40" cy="121" r="3"/><circle cx="48" cy="121" r="3"/><circle cx="56" cy="121" r="3"/><circle cx="64" cy="121" r="3"/><circle cx="72" cy="121" r="3"/><circle cx="80" cy="121" r="3"/><circle cx="88" cy="121" r="3"/><circle cx="96" cy="121" r="3"/><circle cx="104" cy="121" r="3"/><circle cx="112" cy="121" r="3"/><circle cx="120" cy="121" r="3"/><circle cx="4" cy="112" r="2"/><circle cx="12" cy="112" r="2"/><circle cx="20" cy="112" r="2"/><circle cx="28" cy="112" r="2"/><circle cx="36" cy="112" r="2"/><circle cx="44" cy="112" r="2"/><circle cx="52" cy="112" r="2"/><circle cx="60" cy="112" r="2"/><circle cx="68" cy="112" r="2"/><circle cx="76" cy="112" r="2"/><circle cx="84" cy="112" r="2"/><circle cx="92" cy="112" r="2"/><circle cx="100" cy="112" r="2"/><circle cx="108" cy="112" r="2"/><circle cx="116" cy="112" r="2"/><circle cx="124" cy="112" r="2"/></g></svg>