<svg width="128" height="128" fill="none" xmlns="http://www.w3.org/2000/svg"><circle cx="64" cy="64" r="64" fill="#2B34B5"/><g fill="#fff"><circle cx="8" cy="15" r="3" fill-opacity=".25"/><circle cx="16" cy="15" r="3" fill-opacity=".25"/><circle cx="24" cy="15" r="3" fill-opacity=".25"/><circle cx="32" cy="15" r="3" fill-opacity=".25"/><circle cx="40" cy="15" r="3" fill-opacity=".25"/><circle cx="48" cy="15" r="3" fill-opacity=".25"/><circle cx="56" cy="15" r="3" fill-opacity=".25"/><circle cx="64" cy="15" r="3" fill-opacity=".25"/><circle cx="72" cy="15" r="3" fill-opacity=".25"/><circle cx="80" cy="15" r="3" fill-opacity=".25"/><circle cx="88" cy="15" r="3" fill-opacity=".25"/><circle cx="96" cy="15" r="3" fill-opacity=".25"/><circle cx="104" cy="15" r="3" fill-opacity=".25"/><circle cx="112" cy="15" r="3" fill-opacity=".25"/><circle cx="120" cy="15" r="3" fill-opacity=".25"/><circle cx="4" cy="6" r="2" fill-opacity=".25"/><circle cx="12" cy="6" r="2" fill-opacity=".25"/><circle cx="20" cy="6" r="2" fill-opacity=".25"/><circle cx="28" cy="6" r="2" fill-opacity=".25"/><circle cx="36" cy="6" r="2" fill-opacity=".25"/><circle cx="44" cy="6" r="2" fill-opacity=".25"/><circle cx="52" cy="6" r="2" fill-opacity=".25"/><circle cx="60" cy="6" r="2" fill-opacity=".25"/><circle cx="68" cy="6" r="2" fill-opacity=".25"/><circle cx="76" cy="6" r="2" fill-opacity=".25"/><circle cx="84" cy="6" r="2" fill-opacity=".25"/><circle cx="92" cy="6" r="2" fill-opacity=".25"/><circle cx="100" cy="6" r="2" fill-opacity=".25"/><circle cx="108" cy="6" r="2" fill-opacity=".25"/><circle cx="116" cy="6" r="2" fill-opacity=".25"/><circle cx="124" cy="6" r="2" fill-opacity=".25"/><circle cx="8" cy="33" r="3" fill-opacity=".25"/><circle cx="16" cy="33" r="3" fill-opacity=".25"/><circle cx="24" cy="33" r="3" fill-opacity=".25"/><circle cx="32" cy="33" r="3" fill-opacity=".25"/><circle cx="40" cy="33" r="3" fill-opacity=".25"/><circle cx="48" cy="33" r="3" fill-opacity=".25"/><circle cx="56" cy="33" r="3" fill-opacity=".25"/><circle cx="64" cy="33" r="3" fill-opacity=".25"/><circle cx="72" cy="33" r="3" fill-opacity=".25"/><circle cx="80" cy="33" r="3" fill-opacity=".25"/><circle cx="88" cy="33" r="3" fill-opacity=".25"/><circle cx="96" cy="33" r="3" fill-opacity=".25"/><circle cx="104" cy="33" r="3" fill-opacity=".25"/><circle cx="112" cy="33" r="3" fill-opacity=".25"/><circle cx="120" cy="33" r="3" fill-opacity=".25"/><circle cx="4" cy="24" r="2" fill-opacity=".25"/><circle cx="12" cy="24" r="2" fill-opacity=".25"/><circle cx="20" cy="24" r="2" fill-opacity=".25"/><circle cx="28" cy="24" r="2" fill-opacity=".25"/><circle cx="36" cy="24" r="2" fill-opacity=".25"/><circle cx="44" cy="24" r="2" fill-opacity=".25"/><circle cx="52" cy="24" r="2" fill-opacity=".25"/><circle cx="60" cy="24" r="2" fill-opacity=".25"/><circle cx="68" cy="24" r="2" fill-opacity=".25"/><circle cx="76" cy="24" r="2" fill-opacity=".25"/><circle cx="84" cy="24" r="2" fill-opacity=".25"/><circle cx="92" cy="24" r="2" fill-opacity=".25"/><circle cx="100" cy="24" r="2" fill-opacity=".25"/><circle cx="108" cy="24" r="2" fill-opacity=".25"/><circle cx="116" cy="24" r="2" fill-opacity=".25"/><circle cx="124" cy="24" r="2" fill-opacity=".25"/><circle cx="8" cy="51" r="3" fill-opacity=".25"/><circle cx="16" cy="51" r="3" fill-opacity=".25"/><circle cx="24" cy="51" r="3" fill-opacity=".25"/><circle cx="32" cy="51" r="3" fill-opacity=".25"/><circle cx="40" cy="51" r="3" fill-opacity=".25"/><circle cx="48" cy="51" r="3" fill-opacity=".25"/><circle cx="56" cy="51" r="3" fill-opacity=".25"/><circle cx="64" cy="51" r="3" fill-opacity=".25"/><circle cx="72" cy="51" r="3" fill-opacity=".25"/><circle cx="80" cy="51" r="3" fill-opacity=".25"/><circle cx="88" cy="51" r="3" fill-opacity=".25"/><circle cx="96" cy="51" r="3" fill-opacity=".25"/><circle cx="104" cy="51" r="3" fill-opacity=".25"/><circle cx="112" cy="51" r="3" fill-opacity=".25"/><circle cx="120" cy="51" r="3" fill-opacity=".25"/><circle cx="4" cy="42" r="2" fill-opacity=".25"/><circle cx="12" cy="42" r="2" fill-opacity=".25"/><circle cx="20" cy="42" r="2" fill-opacity=".25"/><circle cx="28" cy="42" r="2" fill-opacity=".25"/><circle cx="36" cy="42" r="2" fill-opacity=".25"/><circle cx="44" cy="42" r="2" fill-opacity=".25"/><circle cx="52" cy="42" r="2" fill-opacity=".25"/><circle cx="60" cy="42" r="2" fill-opacity=".25"/><circle cx="68" cy="42" r="2" fill-opacity=".25"/><circle cx="76" cy="42" r="2" fill-opacity=".25"/><circle cx="84" cy="42" r="2" fill-opacity=".25"/><circle cx="92" cy="42" r="2" fill-opacity=".25"/><circle cx="100" cy="42" r="2" fill-opacity=".25"/><circle cx="108" cy="42" r="2" fill-opacity=".25"/><circle cx="116" cy="42" r="2" fill-opacity=".25"/><circle cx="124" cy="42" r="2" fill-opacity=".25"/><circle cx="8" cy="69" r="3" fill-opacity=".25"/><circle cx="16" cy="69" r="3" fill-opacity=".25"/><circle cx="24" cy="69" r="3" fill-opacity=".25"/><circle cx="32" cy="69" r="3" fill-opacity=".25"/><circle cx="40" cy="69" r="3" fill-opacity=".25"/><circle cx="48" cy="69" r="3" fill-opacity=".25"/><circle cx="56" cy="69" r="3" fill-opacity=".25"/><circle cx="64" cy="69" r="3" fill-opacity=".25"/><circle cx="72" cy="69" r="3" fill-opacity=".25"/><circle cx="80" cy="69" r="3" fill-opacity=".25"/><circle cx="88" cy="69" r="3" fill-opacity=".25"/><circle cx="96" cy="69" r="3" fill-opacity=".25"/><circle cx="104" cy="69" r="3" fill-opacity=".25"/><circle cx="112" cy="69" r="3" fill-opacity=".25"/><circle cx="120" cy="69" r="3" fill-opacity=".25"/><circle cx="4" cy="60" r="2" fill-opacity=".25"/><circle cx="12" cy="60" r="2" fill-opacity=".25"/><circle cx="20" cy="60" r="2" fill-opacity=".25"/><circle cx="28" cy="60" r="2" fill-opacity=".25"/><circle cx="36" cy="60" r="2" fill-opacity=".25"/><circle cx="44" cy="60" r="2" fill-opacity=".25"/><circle cx="52" cy="60" r="2" fill-opacity=".25"/><circle cx="60" cy="60" r="2" fill-opacity=".25"/><circle cx="68" cy="60" r="2" fill-opacity=".25"/><circle cx="76" cy="60" r="2" fill-opacity=".25"/><circle cx="84" cy="60" r="2" fill-opacity=".25"/><circle cx="92" cy="60" r="2" fill-opacity=".25"/><circle cx="100" cy="60" r="2" fill-opacity=".25"/><circle cx="108" cy="60" r="2" fill-opacity=".25"/><circle cx="116" cy="60" r="2" fill-opacity=".25"/><circle cx="124" cy="60" r="2" fill-opacity=".25"/><circle cx="8" cy="86" r="3" fill-opacity=".25"/><circle cx="16" cy="86" r="3" fill-opacity=".25"/><circle cx="24" cy="86" r="3" fill-opacity=".25"/><circle cx="32" cy="86" r="3" fill-opacity=".25"/><circle cx="40" cy="86" r="3" fill-opacity=".25"/><circle cx="48" cy="86" r="3" fill-opacity=".25"/><circle cx="56" cy="86" r="3" fill-opacity=".25"/><circle cx="64" cy="86" r="3" fill-opacity=".25"/><circle cx="72" cy="86" r="3" fill-opacity=".25"/><circle cx="80" cy="86" r="3" fill-opacity=".25"/><circle cx="88" cy="86" r="3" fill-opacity=".25"/><circle cx="96" cy="86" r="3" fill-opacity=".25"/><circle cx="104" cy="86" r="3" fill-opacity=".25"/><circle cx="112" cy="86" r="3" fill-opacity=".25"/><circle cx="120" cy="86" r="3" fill-opacity=".25"/><circle cx="4" cy="77" r="2" fill-opacity=".25"/><circle cx="12" cy="77" r="2" fill-opacity=".25"/><circle cx="20" cy="77" r="2" fill-opacity=".25"/><circle cx="28" cy="77" r="2" fill-opacity=".25"/><circle cx="36" cy="77" r="2" fill-opacity=".25"/><circle cx="44" cy="77" r="2" fill-opacity=".25"/><circle cx="52" cy="77" r="2" fill-opacity=".25"/><circle cx="60" cy="77" r="2" fill-opacity=".25"/><circle cx="68" cy="77" r="2" fill-opacity=".25"/><circle cx="76" cy="77" r="2" fill-opacity=".25"/><circle cx="84" cy="77" r="2" fill-opacity=".25"/><circle cx="92" cy="77" r="2" fill-opacity=".25"/><circle cx="100" cy="77" r="2" fill-opacity=".25"/><circle cx="108" cy="77" r="2" fill-opacity=".25"/><circle cx="116" cy="77" r="2" fill-opacity=".25"/><circle cx="124" cy="77" r="2" fill-opacity=".25"/><circle cx="8" cy="104" r="3" fill-opacity=".25"/><circle cx="16" cy="104" r="3" fill-opacity=".25"/><circle cx="24" cy="104" r="3" fill-opacity=".25"/><circle cx="32" cy="104" r="3" fill-opacity=".25"/><circle cx="40" cy="104" r="3" fill-opacity=".25"/><circle cx="48" cy="104" r="3" fill-opacity=".25"/><circle cx="56" cy="104" r="3" fill-opacity=".25"/><circle cx="64" cy="104" r="3" fill-opacity=".25"/><circle cx="72" cy="104" r="3" fill-opacity=".25"/><circle cx="80" cy="104" r="3" fill-opacity=".25"/><circle cx="88" cy="104" r="3" fill-opacity=".25"/><circle cx="96" cy="104" r="3" fill-opacity=".25"/><circle cx="104" cy="104" r="3" fill-opacity=".25"/><circle cx="112" cy="104" r="3" fill-opacity=".25"/><circle cx="120" cy="104" r="3" fill-opacity=".25"/><circle cx="4" cy="95" r="2" fill-opacity=".25"/><circle cx="12" cy="95" r="2" fill-opacity=".25"/><circle cx="20" cy="95" r="2" fill-opacity=".25"/><circle cx="28" cy="95" r="2" fill-opacity=".25"/><circle cx="36" cy="95" r="2" fill-opacity=".25"/><circle cx="44" cy="95" r="2" fill-opacity=".25"/><circle cx="52" cy="95" r="2" fill-opacity=".25"/><circle cx="60" cy="95" r="2" fill-opacity=".25"/><circle cx="68" cy="95" r="2" fill-opacity=".25"/><circle cx="76" cy="95" r="2" fill-opacity=".25"/><circle cx="84" cy="95" r="2" fill-opacity=".25"/><circle cx="92" cy="95" r="2" fill-opacity=".25"/><circle cx="100" cy="95" r="2" fill-opacity=".25"/><circle cx="108" cy="95" r="2" fill-opacity=".25"/><circle cx="116" cy="95" r="2" fill-opacity=".25"/><circle cx="124" cy="95" r="2" fill-opacity=".25"/><circle cx="8" cy="122" r="3" fill-opacity=".25"/><circle cx="16" cy="122" r="3" fill-opacity=".25"/><circle cx="24" cy="122" r="3" fill-opacity=".25"/><circle cx="32" cy="122" r="3" fill-opacity=".25"/><circle cx="40" cy="122" r="3" fill-opacity=".25"/><circle cx="48" cy="122" r="3" fill-opacity=".25"/><circle cx="56" cy="122" r="3" fill-opacity=".25"/><circle cx="64" cy="122" r="3" fill-opacity=".25"/><circle cx="72" cy="122" r="3" fill-opacity=".25"/><circle cx="80" cy="122" r="3" fill-opacity=".25"/><circle cx="88" cy="122" r="3" fill-opacity=".25"/><circle cx="96" cy="122" r="3" fill-opacity=".25"/><circle cx="104" cy="122" r="3" fill-opacity=".25"/><circle cx="112" cy="122" r="3" fill-opacity=".25"/><circle cx="120" cy="122" r="3" fill-opacity=".25"/><circle cx="4" cy="113" r="2" fill-opacity=".25"/><circle cx="12" cy="113" r="2" fill-opacity=".25"/><circle cx="20" cy="113" r="2" fill-opacity=".25"/><circle cx="28" cy="113" r="2" fill-opacity=".25"/><circle cx="36" cy="113" r="2" fill-opacity=".25"/><circle cx="44" cy="113" r="2" fill-opacity=".25"/><circle cx="52" cy="113" r="2" fill-opacity=".25"/><circle cx="60" cy="113" r="2" fill-opacity=".25"/><circle cx="68" cy="113" r="2" fill-opacity=".25"/><circle cx="76" cy="113" r="2" fill-opacity=".25"/><circle cx="84" cy="113" r="2" fill-opacity=".25"/><circle cx="92" cy="113" r="2" fill-opacity=".25"/><circle cx="100" cy="113" r="2" fill-opacity=".25"/><circle cx="108" cy="113" r="2" fill-opacity=".25"/><circle cx="116" cy="113" r="2" fill-opacity=".25"/><circle cx="124" cy="113" r="2" fill-opacity=".25"/><path fill="#fff" d="M25.534 79.6l-.48 2.64h-.48l-.24-10.8h.48l1.44 3.36c2.048 4.8 4.896 7.2 8.544 7.2 1.664 0 3.088-.512 4.272-1.536 1.216-1.024 1.824-2.592 1.824-4.704 0-1.824-.656-3.312-1.968-4.464-1.312-1.184-3.088-2.256-5.328-3.216-1.44-.608-2.656-1.184-3.648-1.728-.96-.544-1.952-1.232-2.976-2.064-1.024-.864-1.808-1.856-2.352-2.976-.512-1.12-.768-2.384-.768-3.792 0-2.976 1.12-5.312 3.36-7.008 2.24-1.728 5.072-2.592 8.496-2.592 1.44 0 2.928.224 4.464.672 1.568.416 2.848.944 3.84 1.584l.48-2.016h.48l.24 10.08h-.48l-1.44-3.12c-1.056-2.336-2.176-4.032-3.36-5.088-1.184-1.088-2.576-1.632-4.176-1.632-.48 0-1.024.08-1.632.24-.576.16-1.216.432-1.92.816-.672.352-1.232.928-1.68 1.728-.448.768-.672 1.68-.672 2.736 0 1.632.592 2.944 1.776 3.936 1.184.992 2.832 1.92 4.944 2.784 1.376.544 2.592 1.12 3.648 1.728a22.173 22.173 0 0 1 3.264 2.256 9.022 9.022 0 0 1 2.496 3.216c.608 1.248.912 2.608.912 4.08 0 3.424-1.152 6.048-3.456 7.872-2.304 1.792-5.184 2.688-8.64 2.688-3.168 0-6.256-.96-9.264-2.88zm23.762-23.04l.24-8.16h26.4l.24 8.16h-.48l-5.28-7.344-3.84-.24V81.28l2.88.24V82h-13.44v-.48l2.88-.24V48.976l-3.84.24-5.28 7.344h-.48zm57.101 12.48v-18l-5.28-2.16v-.48h11.52v.48l-5.52 2.16v18c0 4.32-1.024 7.648-3.072 9.984-2.048 2.304-5.024 3.456-8.928 3.456-4.608 0-8.128-1.184-10.56-3.552-2.4-2.368-3.6-5.664-3.6-9.888V49.12l-2.88-.24v-.48h13.44v.48l-2.88.24v21.36c0 3.648.768 6.32 2.304 8.016 1.536 1.696 3.648 2.544 6.336 2.544 3.072 0 5.36-1.104 6.864-3.312 1.504-2.208 2.256-5.104 2.256-8.688z"/></g></svg>