<svg width="128" height="128" fill="none" xmlns="http://www.w3.org/2000/svg"><circle cx="64" cy="64" r="64" fill="#2B34B5"/><g fill="#fff"><circle cx="8" cy="15" r="3" fill-opacity=".25"/><circle cx="16" cy="15" r="3" fill-opacity=".25"/><circle cx="24" cy="15" r="3" fill-opacity=".25"/><circle cx="32" cy="15" r="3" fill-opacity=".25"/><circle cx="40" cy="15" r="3" fill-opacity=".25"/><circle cx="48" cy="15" r="3" fill-opacity=".25"/><circle cx="56" cy="15" r="3" fill-opacity=".25"/><circle cx="64" cy="15" r="3" fill-opacity=".25"/><circle cx="72" cy="15" r="3" fill-opacity=".25"/><circle cx="80" cy="15" r="3" fill-opacity=".25"/><circle cx="88" cy="15" r="3" fill-opacity=".25"/><circle cx="96" cy="15" r="3" fill-opacity=".25"/><circle cx="104" cy="15" r="3" fill-opacity=".25"/><circle cx="112" cy="15" r="3" fill-opacity=".25"/><circle cx="120" cy="15" r="3" fill-opacity=".25"/><circle cx="4" cy="6" r="2" fill-opacity=".25"/><circle cx="12" cy="6" r="2" fill-opacity=".25"/><circle cx="20" cy="6" r="2" fill-opacity=".25"/><circle cx="28" cy="6" r="2" fill-opacity=".25"/><circle cx="36" cy="6" r="2" fill-opacity=".25"/><circle cx="44" cy="6" r="2" fill-opacity=".25"/><circle cx="52" cy="6" r="2" fill-opacity=".25"/><circle cx="60" cy="6" r="2" fill-opacity=".25"/><circle cx="68" cy="6" r="2" fill-opacity=".25"/><circle cx="76" cy="6" r="2" fill-opacity=".25"/><circle cx="84" cy="6" r="2" fill-opacity=".25"/><circle cx="92" cy="6" r="2" fill-opacity=".25"/><circle cx="100" cy="6" r="2" fill-opacity=".25"/><circle cx="108" cy="6" r="2" fill-opacity=".25"/><circle cx="116" cy="6" r="2" fill-opacity=".25"/><circle cx="124" cy="6" r="2" fill-opacity=".25"/><circle cx="8" cy="33" r="3" fill-opacity=".25"/><circle cx="16" cy="33" r="3" fill-opacity=".25"/><circle cx="24" cy="33" r="3" fill-opacity=".25"/><circle cx="32" cy="33" r="3" fill-opacity=".25"/><circle cx="40" cy="33" r="3" fill-opacity=".25"/><circle cx="48" cy="33" r="3" fill-opacity=".25"/><circle cx="56" cy="33" r="3" fill-opacity=".25"/><circle cx="64" cy="33" r="3" fill-opacity=".25"/><circle cx="72" cy="33" r="3" fill-opacity=".25"/><circle cx="80" cy="33" r="3" fill-opacity=".25"/><circle cx="88" cy="33" r="3" fill-opacity=".25"/><circle cx="96" cy="33" r="3" fill-opacity=".25"/><circle cx="104" cy="33" r="3" fill-opacity=".25"/><circle cx="112" cy="33" r="3" fill-opacity=".25"/><circle cx="120" cy="33" r="3" fill-opacity=".25"/><circle cx="4" cy="24" r="2" fill-opacity=".25"/><circle cx="12" cy="24" r="2" fill-opacity=".25"/><circle cx="20" cy="24" r="2" fill-opacity=".25"/><circle cx="28" cy="24" r="2" fill-opacity=".25"/><circle cx="36" cy="24" r="2" fill-opacity=".25"/><circle cx="44" cy="24" r="2" fill-opacity=".25"/><circle cx="52" cy="24" r="2" fill-opacity=".25"/><circle cx="60" cy="24" r="2" fill-opacity=".25"/><circle cx="68" cy="24" r="2" fill-opacity=".25"/><circle cx="76" cy="24" r="2" fill-opacity=".25"/><circle cx="84" cy="24" r="2" fill-opacity=".25"/><circle cx="92" cy="24" r="2" fill-opacity=".25"/><circle cx="100" cy="24" r="2" fill-opacity=".25"/><circle cx="108" cy="24" r="2" fill-opacity=".25"/><circle cx="116" cy="24" r="2" fill-opacity=".25"/><circle cx="124" cy="24" r="2" fill-opacity=".25"/><circle cx="8" cy="51" r="3" fill-opacity=".25"/><circle cx="16" cy="51" r="3" fill-opacity=".25"/><circle cx="24" cy="51" r="3" fill-opacity=".25"/><circle cx="32" cy="51" r="3" fill-opacity=".25"/><circle cx="40" cy="51" r="3" fill-opacity=".25"/><circle cx="48" cy="51" r="3" fill-opacity=".25"/><circle cx="56" cy="51" r="3" fill-opacity=".25"/><circle cx="64" cy="51" r="3" fill-opacity=".25"/><circle cx="72" cy="51" r="3" fill-opacity=".25"/><circle cx="80" cy="51" r="3" fill-opacity=".25"/><circle cx="88" cy="51" r="3" fill-opacity=".25"/><circle cx="96" cy="51" r="3" fill-opacity=".25"/><circle cx="104" cy="51" r="3" fill-opacity=".25"/><circle cx="112" cy="51" r="3" fill-opacity=".25"/><circle cx="120" cy="51" r="3" fill-opacity=".25"/><circle cx="4" cy="42" r="2" fill-opacity=".25"/><circle cx="12" cy="42" r="2" fill-opacity=".25"/><circle cx="20" cy="42" r="2" fill-opacity=".25"/><circle cx="28" cy="42" r="2" fill-opacity=".25"/><circle cx="36" cy="42" r="2" fill-opacity=".25"/><circle cx="44" cy="42" r="2" fill-opacity=".25"/><circle cx="52" cy="42" r="2" fill-opacity=".25"/><circle cx="60" cy="42" r="2" fill-opacity=".25"/><circle cx="68" cy="42" r="2" fill-opacity=".25"/><circle cx="76" cy="42" r="2" fill-opacity=".25"/><circle cx="84" cy="42" r="2" fill-opacity=".25"/><circle cx="92" cy="42" r="2" fill-opacity=".25"/><circle cx="100" cy="42" r="2" fill-opacity=".25"/><circle cx="108" cy="42" r="2" fill-opacity=".25"/><circle cx="116" cy="42" r="2" fill-opacity=".25"/><circle cx="124" cy="42" r="2" fill-opacity=".25"/><circle cx="8" cy="69" r="3" fill-opacity=".25"/><circle cx="16" cy="69" r="3" fill-opacity=".25"/><circle cx="24" cy="69" r="3" fill-opacity=".25"/><circle cx="32" cy="69" r="3" fill-opacity=".25"/><circle cx="40" cy="69" r="3" fill-opacity=".25"/><circle cx="48" cy="69" r="3" fill-opacity=".25"/><circle cx="56" cy="69" r="3" fill-opacity=".25"/><circle cx="64" cy="69" r="3" fill-opacity=".25"/><circle cx="72" cy="69" r="3" fill-opacity=".25"/><circle cx="80" cy="69" r="3" fill-opacity=".25"/><circle cx="88" cy="69" r="3" fill-opacity=".25"/><circle cx="96" cy="69" r="3" fill-opacity=".25"/><circle cx="104" cy="69" r="3" fill-opacity=".25"/><circle cx="112" cy="69" r="3" fill-opacity=".25"/><circle cx="120" cy="69" r="3" fill-opacity=".25"/><circle cx="4" cy="60" r="2" fill-opacity=".25"/><circle cx="12" cy="60" r="2" fill-opacity=".25"/><circle cx="20" cy="60" r="2" fill-opacity=".25"/><circle cx="28" cy="60" r="2" fill-opacity=".25"/><circle cx="36" cy="60" r="2" fill-opacity=".25"/><circle cx="44" cy="60" r="2" fill-opacity=".25"/><circle cx="52" cy="60" r="2" fill-opacity=".25"/><circle cx="60" cy="60" r="2" fill-opacity=".25"/><circle cx="68" cy="60" r="2" fill-opacity=".25"/><circle cx="76" cy="60" r="2" fill-opacity=".25"/><circle cx="84" cy="60" r="2" fill-opacity=".25"/><circle cx="92" cy="60" r="2" fill-opacity=".25"/><circle cx="100" cy="60" r="2" fill-opacity=".25"/><circle cx="108" cy="60" r="2" fill-opacity=".25"/><circle cx="116" cy="60" r="2" fill-opacity=".25"/><circle cx="124" cy="60" r="2" fill-opacity=".25"/><circle cx="8" cy="86" r="3" fill-opacity=".25"/><circle cx="16" cy="86" r="3" fill-opacity=".25"/><circle cx="24" cy="86" r="3" fill-opacity=".25"/><circle cx="32" cy="86" r="3" fill-opacity=".25"/><circle cx="40" cy="86" r="3" fill-opacity=".25"/><circle cx="48" cy="86" r="3" fill-opacity=".25"/><circle cx="56" cy="86" r="3" fill-opacity=".25"/><circle cx="64" cy="86" r="3" fill-opacity=".25"/><circle cx="72" cy="86" r="3" fill-opacity=".25"/><circle cx="80" cy="86" r="3" fill-opacity=".25"/><circle cx="88" cy="86" r="3" fill-opacity=".25"/><circle cx="96" cy="86" r="3" fill-opacity=".25"/><circle cx="104" cy="86" r="3" fill-opacity=".25"/><circle cx="112" cy="86" r="3" fill-opacity=".25"/><circle cx="120" cy="86" r="3" fill-opacity=".25"/><circle cx="4" cy="77" r="2" fill-opacity=".25"/><circle cx="12" cy="77" r="2" fill-opacity=".25"/><circle cx="20" cy="77" r="2" fill-opacity=".25"/><circle cx="28" cy="77" r="2" fill-opacity=".25"/><circle cx="36" cy="77" r="2" fill-opacity=".25"/><circle cx="44" cy="77" r="2" fill-opacity=".25"/><circle cx="52" cy="77" r="2" fill-opacity=".25"/><circle cx="60" cy="77" r="2" fill-opacity=".25"/><circle cx="68" cy="77" r="2" fill-opacity=".25"/><circle cx="76" cy="77" r="2" fill-opacity=".25"/><circle cx="84" cy="77" r="2" fill-opacity=".25"/><circle cx="92" cy="77" r="2" fill-opacity=".25"/><circle cx="100" cy="77" r="2" fill-opacity=".25"/><circle cx="108" cy="77" r="2" fill-opacity=".25"/><circle cx="116" cy="77" r="2" fill-opacity=".25"/><circle cx="124" cy="77" r="2" fill-opacity=".25"/><circle cx="8" cy="104" r="3" fill-opacity=".25"/><circle cx="16" cy="104" r="3" fill-opacity=".25"/><circle cx="24" cy="104" r="3" fill-opacity=".25"/><circle cx="32" cy="104" r="3" fill-opacity=".25"/><circle cx="40" cy="104" r="3" fill-opacity=".25"/><circle cx="48" cy="104" r="3" fill-opacity=".25"/><circle cx="56" cy="104" r="3" fill-opacity=".25"/><circle cx="64" cy="104" r="3" fill-opacity=".25"/><circle cx="72" cy="104" r="3" fill-opacity=".25"/><circle cx="80" cy="104" r="3" fill-opacity=".25"/><circle cx="88" cy="104" r="3" fill-opacity=".25"/><circle cx="96" cy="104" r="3" fill-opacity=".25"/><circle cx="104" cy="104" r="3" fill-opacity=".25"/><circle cx="112" cy="104" r="3" fill-opacity=".25"/><circle cx="120" cy="104" r="3" fill-opacity=".25"/><circle cx="4" cy="95" r="2" fill-opacity=".25"/><circle cx="12" cy="95" r="2" fill-opacity=".25"/><circle cx="20" cy="95" r="2" fill-opacity=".25"/><circle cx="28" cy="95" r="2" fill-opacity=".25"/><circle cx="36" cy="95" r="2" fill-opacity=".25"/><circle cx="44" cy="95" r="2" fill-opacity=".25"/><circle cx="52" cy="95" r="2" fill-opacity=".25"/><circle cx="60" cy="95" r="2" fill-opacity=".25"/><circle cx="68" cy="95" r="2" fill-opacity=".25"/><circle cx="76" cy="95" r="2" fill-opacity=".25"/><circle cx="84" cy="95" r="2" fill-opacity=".25"/><circle cx="92" cy="95" r="2" fill-opacity=".25"/><circle cx="100" cy="95" r="2" fill-opacity=".25"/><circle cx="108" cy="95" r="2" fill-opacity=".25"/><circle cx="116" cy="95" r="2" fill-opacity=".25"/><circle cx="124" cy="95" r="2" fill-opacity=".25"/><circle cx="8" cy="122" r="3" fill-opacity=".25"/><circle cx="16" cy="122" r="3" fill-opacity=".25"/><circle cx="24" cy="122" r="3" fill-opacity=".25"/><circle cx="32" cy="122" r="3" fill-opacity=".25"/><circle cx="40" cy="122" r="3" fill-opacity=".25"/><circle cx="48" cy="122" r="3" fill-opacity=".25"/><circle cx="56" cy="122" r="3" fill-opacity=".25"/><circle cx="64" cy="122" r="3" fill-opacity=".25"/><circle cx="72" cy="122" r="3" fill-opacity=".25"/><circle cx="80" cy="122" r="3" fill-opacity=".25"/><circle cx="88" cy="122" r="3" fill-opacity=".25"/><circle cx="96" cy="122" r="3" fill-opacity=".25"/><circle cx="104" cy="122" r="3" fill-opacity=".25"/><circle cx="112" cy="122" r="3" fill-opacity=".25"/><circle cx="120" cy="122" r="3" fill-opacity=".25"/><circle cx="4" cy="113" r="2" fill-opacity=".25"/><circle cx="12" cy="113" r="2" fill-opacity=".25"/><circle cx="20" cy="113" r="2" fill-opacity=".25"/><circle cx="28" cy="113" r="2" fill-opacity=".25"/><circle cx="36" cy="113" r="2" fill-opacity=".25"/><circle cx="44" cy="113" r="2" fill-opacity=".25"/><circle cx="52" cy="113" r="2" fill-opacity=".25"/><circle cx="60" cy="113" r="2" fill-opacity=".25"/><circle cx="68" cy="113" r="2" fill-opacity=".25"/><circle cx="76" cy="113" r="2" fill-opacity=".25"/><circle cx="84" cy="113" r="2" fill-opacity=".25"/><circle cx="92" cy="113" r="2" fill-opacity=".25"/><circle cx="100" cy="113" r="2" fill-opacity=".25"/><circle cx="108" cy="113" r="2" fill-opacity=".25"/><circle cx="116" cy="113" r="2" fill-opacity=".25"/><circle cx="124" cy="113" r="2" fill-opacity=".25"/><path d="M31.65 55.2l-.36 1.98h-.36l-.18-8.1h.36l1.08 2.52c1.537 3.6 3.672 5.4 6.409 5.4 1.248 0 2.316-.384 3.204-1.152.912-.768 1.367-1.944 1.367-3.528 0-1.368-.492-2.484-1.476-3.348-.983-.888-2.316-1.692-3.995-2.412a30.235 30.235 0 0 1-2.736-1.296 16.376 16.376 0 0 1-2.233-1.548 6.792 6.792 0 0 1-1.763-2.232c-.384-.84-.576-1.788-.576-2.844 0-2.232.84-3.984 2.52-5.256 1.68-1.296 3.803-1.944 6.371-1.944 1.08 0 2.197.168 3.349.504 1.175.312 2.136.708 2.88 1.188l.36-1.512h.36l.18 7.56h-.36l-1.08-2.34c-.792-1.752-1.632-3.024-2.52-3.816-.889-.816-1.932-1.224-3.133-1.224-.36 0-.767.06-1.224.18-.431.12-.912.324-1.44.612-.504.264-.924.696-1.26 1.296-.335.576-.503 1.26-.503 2.052 0 1.224.444 2.208 1.331 2.952.889.744 2.124 1.44 3.709 2.088 1.032.408 1.944.84 2.736 1.296a16.63 16.63 0 0 1 2.447 1.692 6.766 6.766 0 0 1 1.873 2.412c.456.936.683 1.956.683 3.06 0 2.568-.864 4.536-2.592 5.904-1.728 1.344-3.888 2.016-6.48 2.016-2.376 0-4.691-.72-6.947-2.16zm17.822-17.28l.18-6.12h19.8l.18 6.12h-.36l-3.96-5.508-2.88-.18V56.46l2.16.18V57h-10.08v-.36l2.16-.18V32.232l-2.88.18-3.96 5.508h-.36zm42.826 9.36v-13.5l-3.96-1.62v-.36h8.64v.36l-4.14 1.62v13.5c0 3.24-.768 5.736-2.304 7.488-1.536 1.728-3.768 2.592-6.696 2.592-3.456 0-6.096-.888-7.92-2.664-1.8-1.776-2.7-4.248-2.7-7.416V32.34l-2.16-.18v-.36h10.08v.36l-2.16.18v16.02c0 2.736.576 4.74 1.728 6.012 1.152 1.272 2.736 1.908 4.752 1.908 2.304 0 4.02-.828 5.148-2.484 1.128-1.656 1.692-3.828 1.692-6.516zM16.882 77.92l.18-6.12h19.8l.18 6.12h-.36l-3.96-5.508-2.88-.18V96.46l2.16.18V97h-10.08v-.36l2.16-.18V72.232l-2.88.18-3.96 5.508h-.36zm29.866-5.76v12.06l5.04-.18 1.98-4.32h.36v9.18h-.36l-1.98-4.14-5.04-.18v12.06l7.02-.18 4.14-5.58h.36l-.36 6.12h-19.08v-.36l2.16-.18V72.34l-2.16-.18v-.36h18.72l.18 6.12h-.36l-3.96-5.58-6.66-.18zM81.294 95.2c-.864.552-2.052 1.056-3.564 1.512a17.082 17.082 0 0 1-4.716.648c-3.744 0-6.78-1.2-9.108-3.6-2.328-2.424-3.492-5.544-3.492-9.36s1.164-6.924 3.492-9.324c2.328-2.424 5.364-3.636 9.108-3.636 1.632 0 3.204.228 4.716.684 1.512.432 2.7.924 3.564 1.476l.18 6.12h-.36l-2.52-4.32c-.48-.888-1.152-1.704-2.016-2.448-.864-.768-1.812-1.152-2.844-1.152-2.352 0-4.14 1.068-5.364 3.204-1.224 2.136-1.836 5.268-1.836 9.396 0 4.2.576 7.356 1.728 9.468 1.176 2.088 3 3.132 5.472 3.132 1.032 0 2.004-.384 2.916-1.152.936-.792 1.644-1.608 2.124-2.448l2.52-4.32h.36l-.36 6.12zm20.534 1.26V84.4h-10.08v12.06l2.16.18V97h-10.08v-.36l2.16-.18V72.34l-2.16-.18v-.36h10.08v.36l-2.16.18v11.628h10.08V72.34l-2.16-.18v-.36h10.08v.36l-2.16.18v24.12l2.16.18V97h-10.08v-.36l2.16-.18z"/></g></svg>