<svg width="609" height="210" viewBox="0 0 609 210" fill="none" xmlns="http://www.w3.org/2000/svg">
<path d="M4.68 105H20.8V79.208H46.384V105H62.504V39.48H46.384V65.168H20.8V39.48H4.68V105ZM69.7304 82.12C69.7304 97.824 78.7784 106.56 89.4904 106.56C95.6264 106.56 101.138 104.064 104.466 98.968V105H120.482V59.24H104.466V65.272C101.138 60.176 95.6264 57.68 89.4904 57.68C78.7784 57.68 69.7304 66.416 69.7304 82.12ZM95.2104 70.68C100.93 70.68 104.674 74.84 104.674 82.12C104.674 89.4 100.826 93.56 95.2104 93.56C89.1784 93.56 85.7464 88.672 85.7464 82.12C85.7464 75.568 89.1784 70.68 95.2104 70.68ZM143.429 82.12C143.429 74.112 147.381 70.16 152.165 70.16C155.909 70.16 159.341 72.552 159.757 77.648H176.189C174.005 62.568 161.941 57.68 152.165 57.68C139.893 57.68 127.413 65.272 127.413 82.12C127.413 98.968 139.893 106.56 152.165 106.56C162.045 106.56 174.109 101.672 176.189 86.592H159.757C159.237 91.584 155.909 94.08 152.165 94.08C147.381 94.08 143.429 90.128 143.429 82.12ZM182.719 105H198.735V85.24L213.607 105H233.159L213.815 80.872L231.703 59.24H214.231L198.735 77.232V34.28H182.719V105ZM4.68 191H20.8V169.16H29.536C45.136 169.16 54.392 160.632 54.392 147.32C54.392 134.008 46.176 125.48 29.432 125.48H4.68V191ZM29.64 138.48C34.32 138.48 38.168 141.704 38.168 147.32C38.168 152.624 34.84 156.16 29.328 156.16H20.8V138.48H29.64ZM83.0009 192.56C94.3369 192.56 104.217 186.84 106.401 175.712H90.5929C89.8649 178.624 87.5769 180.6 83.0009 180.6C78.3209 180.6 74.9929 178.52 74.0569 171.864H106.713C106.921 170.096 107.025 168.536 107.025 166.768C107.025 153.352 98.0809 143.68 82.8969 143.68C68.4409 143.68 58.2489 153.768 58.2489 168.12C58.2489 182.472 68.5449 192.56 83.0009 192.56ZM82.6889 155.64C87.5769 155.64 90.9049 158.032 91.4249 162.92H73.8489C74.6809 157.72 77.9049 155.64 82.6889 155.64ZM113.758 191H129.774V165.936C129.774 159.488 132.79 156.68 137.678 156.68C142.15 156.68 144.542 159.696 144.542 165.936V191H160.558V164.376C160.558 151.376 153.902 143.68 143.19 143.68C137.366 143.68 132.686 146.384 129.774 151.272V145.24H113.758V191ZM169.211 191H185.227V165.936C185.227 159.488 188.243 156.68 193.131 156.68C197.603 156.68 199.995 159.696 199.995 165.936V191H216.011V164.376C216.011 151.376 209.355 143.68 198.643 143.68C192.819 143.68 188.139 146.384 185.227 151.272V145.24H169.211V191ZM262.208 158.656C261.168 148.464 253.888 143.68 242.552 143.68C230.072 143.68 223 149.504 223 158.448C223 165.52 227.368 170.304 237.456 172.592L245.776 174.464C248.584 175.088 249.52 176.336 249.52 177.792C249.52 180.288 247.336 181.64 244.32 181.64C240.368 181.64 238.288 179.768 238.08 176.128H222.376C223 185.696 230.696 192.56 243.904 192.56C256.176 192.56 264.6 185.592 264.6 176.128C264.6 169.368 261.272 164.896 253.16 163.128L243.488 161.048C238.912 160.112 238.08 159.176 238.08 157.304C238.08 155.432 239.848 154.6 242.136 154.6C245.048 154.6 247.024 155.848 247.024 158.656H262.208ZM299.882 145.24L291.77 170.304L283.45 145.24H267.226L283.97 188.4L276.378 209.2H291.146L315.898 145.24H299.882ZM386.256 145.24L377.208 174.464L368.056 145.24H351.624L367.744 191H386.152L402.272 145.24H386.256ZM405.394 168.12C405.394 183.824 414.442 192.56 425.154 192.56C431.29 192.56 436.802 190.064 440.13 184.968V191H456.146V145.24H440.13V151.272C436.802 146.176 431.29 143.68 425.154 143.68C414.442 143.68 405.394 152.416 405.394 168.12ZM430.874 156.68C436.594 156.68 440.338 160.84 440.338 168.12C440.338 175.4 436.49 179.56 430.874 179.56C424.842 179.56 421.41 174.672 421.41 168.12C421.41 161.568 424.842 156.68 430.874 156.68ZM465.469 191H481.485V165.936C481.485 159.488 484.501 156.68 489.389 156.68C493.861 156.68 496.253 159.696 496.253 165.936V191H512.269V164.376C512.269 151.376 505.613 143.68 494.901 143.68C489.077 143.68 484.397 146.384 481.485 151.272V145.24H465.469V191ZM553.371 168.12C553.371 183.824 562.419 192.56 573.131 192.56C579.267 192.56 584.779 190.064 588.107 184.968V191H604.123V145.24H588.107V151.272C584.779 146.176 579.267 143.68 573.131 143.68C562.419 143.68 553.371 152.416 553.371 168.12ZM578.851 156.68C584.571 156.68 588.315 160.84 588.315 168.12C588.315 175.4 584.467 179.56 578.851 179.56C572.819 179.56 569.387 174.672 569.387 168.12C569.387 161.568 572.819 156.68 578.851 156.68Z" fill="white"/>
<path d="M487 129L533 83M533 83L579 129M533 83V191" stroke="#3FB34F" stroke-width="16"/>
<path d="M492.5 87.5L533 47L573.5 87.5" stroke="#3FB34F" stroke-width="16"/>
<path d="M500.5 44.5L533 12L565.5 44.5" stroke="#3FB34F" stroke-width="16"/>
<path d="M298 127L334 91M334 91L370 127M334 91V190.5" stroke="#3FB34F" stroke-width="16"/>
<path d="M303.5 91.5L334 61L364.5 91.5" stroke="#3FB34F" stroke-width="16"/>
<path d="M311.5 53.5L334 31L356.5 53.5" stroke="#3FB34F" stroke-width="16"/>
</svg>
