<?xml version="1.0" standalone="no"?>
<!DOCTYPE svg PUBLIC "-//W3C//DTD SVG 20010904//EN"
 "http://www.w3.org/TR/2001/REC-SVG-20010904/DTD/svg10.dtd">
<svg version="1.0" xmlns="http://www.w3.org/2000/svg"
 width="700.000000pt" height="700.000000pt" viewBox="0 0 700.000000 700.000000"
 preserveAspectRatio="xMidYMid meet">
<metadata>
Created by potrace 1.11, written by Peter Selinger 2001-2013
</metadata>
<g transform="translate(0.000000,700.000000) scale(0.100000,-0.100000)"
fill="#000000" stroke="none">
<path d="M4237 5822 c-312 -312 -567 -571 -567 -577 0 -5 66 -76 147 -157
l148 -148 422 422 423 423 423 -423 422 -422 153 153 152 152 -573 573 c-314
314 -574 572 -577 572 -3 0 -260 -255 -573 -568z"/>
<path d="M4115 4620 l-700 -700 153 -152 152 -153 543 543 c298 298 547 542
552 542 5 0 253 -243 550 -540 l540 -540 153 153 152 152 -698 698 -697 697
-700 -700z"/>
<path d="M1467 4522 l-417 -417 152 -153 153 -152 267 267 268 268 268 -268
267 -267 153 153 152 152 -418 418 c-229 229 -419 417 -422 417 -3 0 -193
-188 -423 -418z"/>
<path d="M4032 3427 l-782 -782 152 -153 153 -152 522 522 523 523 0 -1398 0
-1397 215 0 215 0 0 1397 0 1398 523 -523 522 -522 153 153 152 152 -783 783
-782 782 -783 -783z"/>
<path d="M1342 3477 l-542 -542 152 -153 153 -152 392 392 393 393 393 -393
392 -392 153 153 152 152 -543 543 c-298 298 -544 542 -547 542 -3 0 -249
-244 -548 -543z"/>
<path d="M1257 2472 l-627 -627 153 -153 152 -152 365 365 c201 201 368 365
372 365 5 0 8 -378 8 -840 l0 -840 215 0 215 0 0 842 0 843 368 -368 367 -367
153 153 152 152 -628 628 c-345 345 -629 627 -632 627 -3 0 -287 -282 -633
-628z"/>
</g>
</svg>
