<svg width="128" height="128" fill="none" xmlns="http://www.w3.org/2000/svg"><circle cx="8" cy="11" r="3" fill="#000" fill-opacity=".25"/><circle cx="16" cy="11" r="3" fill="#000" fill-opacity=".25"/><circle cx="24" cy="11" r="3" fill="#000" fill-opacity=".25"/><circle cx="32" cy="11" r="3" fill="#000" fill-opacity=".25"/><circle cx="40" cy="11" r="3" fill="#000" fill-opacity=".25"/><circle cx="48" cy="11" r="3" fill="#000" fill-opacity=".25"/><circle cx="56" cy="11" r="3" fill="#000" fill-opacity=".25"/><circle cx="64" cy="11" r="3" fill="#000" fill-opacity=".25"/><circle cx="72" cy="11" r="3" fill="#000" fill-opacity=".25"/><circle cx="80" cy="11" r="3" fill="#000" fill-opacity=".25"/><circle cx="88" cy="11" r="3" fill="#000" fill-opacity=".25"/><circle cx="96" cy="11" r="3" fill="#000" fill-opacity=".25"/><circle cx="104" cy="11" r="3" fill="#000" fill-opacity=".25"/><circle cx="112" cy="11" r="3" fill="#000" fill-opacity=".25"/><circle cx="120" cy="11" r="3" fill="#000" fill-opacity=".25"/><circle cx="4" cy="4" r="2" fill="#000" fill-opacity=".25"/><circle cx="12" cy="4" r="2" fill="#000" fill-opacity=".25"/><circle cx="20" cy="4" r="2" fill="#000" fill-opacity=".25"/><circle cx="28" cy="4" r="2" fill="#000" fill-opacity=".25"/><circle cx="36" cy="4" r="2" fill="#000" fill-opacity=".25"/><circle cx="44" cy="4" r="2" fill="#000" fill-opacity=".25"/><circle cx="52" cy="4" r="2" fill="#000" fill-opacity=".25"/><circle cx="60" cy="4" r="2" fill="#000" fill-opacity=".25"/><circle cx="68" cy="4" r="2" fill="#000" fill-opacity=".25"/><circle cx="76" cy="4" r="2" fill="#000" fill-opacity=".25"/><circle cx="84" cy="4" r="2" fill="#000" fill-opacity=".25"/><circle cx="92" cy="4" r="2" fill="#000" fill-opacity=".25"/><circle cx="100" cy="4" r="2" fill="#000" fill-opacity=".25"/><circle cx="108" cy="4" r="2" fill="#000" fill-opacity=".25"/><circle cx="116" cy="4" r="2" fill="#000" fill-opacity=".25"/><circle cx="124" cy="4" r="2" fill="#000" fill-opacity=".25"/><circle cx="8" cy="25" r="3" fill="#000" fill-opacity=".25"/><circle cx="16" cy="25" r="3" fill="#000" fill-opacity=".25"/><circle cx="24" cy="25" r="3" fill="#000" fill-opacity=".25"/><circle cx="32" cy="25" r="3" fill="#000" fill-opacity=".25"/><circle cx="40" cy="25" r="3" fill="#000" fill-opacity=".25"/><circle cx="48" cy="25" r="3" fill="#000" fill-opacity=".25"/><circle cx="56" cy="25" r="3" fill="#000" fill-opacity=".25"/><circle cx="64" cy="25" r="3" fill="#000" fill-opacity=".25"/><circle cx="72" cy="25" r="3" fill="#000" fill-opacity=".25"/><circle cx="80" cy="25" r="3" fill="#000" fill-opacity=".25"/><circle cx="88" cy="25" r="3" fill="#000" fill-opacity=".25"/><circle cx="96" cy="25" r="3" fill="#000" fill-opacity=".25"/><circle cx="104" cy="25" r="3" fill="#000" fill-opacity=".25"/><circle cx="112" cy="25" r="3" fill="#000" fill-opacity=".25"/><circle cx="120" cy="25" r="3" fill="#000" fill-opacity=".25"/><circle cx="4" cy="18" r="2" fill="#000" fill-opacity=".25"/><circle cx="12" cy="18" r="2" fill="#000" fill-opacity=".25"/><circle cx="20" cy="18" r="2" fill="#000" fill-opacity=".25"/><circle cx="28" cy="18" r="2" fill="#000" fill-opacity=".25"/><circle cx="36" cy="18" r="2" fill="#000" fill-opacity=".25"/><circle cx="44" cy="18" r="2" fill="#000" fill-opacity=".25"/><circle cx="52" cy="18" r="2" fill="#000" fill-opacity=".25"/><circle cx="60" cy="18" r="2" fill="#000" fill-opacity=".25"/><circle cx="68" cy="18" r="2" fill="#000" fill-opacity=".25"/><circle cx="76" cy="18" r="2" fill="#000" fill-opacity=".25"/><circle cx="84" cy="18" r="2" fill="#000" fill-opacity=".25"/><circle cx="92" cy="18" r="2" fill="#000" fill-opacity=".25"/><circle cx="100" cy="18" r="2" fill="#000" fill-opacity=".25"/><circle cx="108" cy="18" r="2" fill="#000" fill-opacity=".25"/><circle cx="116" cy="18" r="2" fill="#000" fill-opacity=".25"/><circle cx="124" cy="18" r="2" fill="#000" fill-opacity=".25"/><circle cx="8" cy="39" r="3" fill="#000" fill-opacity=".25"/><circle cx="16" cy="39" r="3" fill="#000" fill-opacity=".25"/><circle cx="24" cy="39" r="3" fill="#000" fill-opacity=".25"/><circle cx="32" cy="39" r="3" fill="#000" fill-opacity=".25"/><circle cx="40" cy="39" r="3" fill="#000" fill-opacity=".25"/><circle cx="48" cy="39" r="3" fill="#000" fill-opacity=".25"/><circle cx="56" cy="39" r="3" fill="#000" fill-opacity=".25"/><circle cx="64" cy="39" r="3" fill="#000" fill-opacity=".25"/><circle cx="72" cy="39" r="3" fill="#000" fill-opacity=".25"/><circle cx="80" cy="39" r="3" fill="#000" fill-opacity=".25"/><circle cx="88" cy="39" r="3" fill="#000" fill-opacity=".25"/><circle cx="96" cy="39" r="3" fill="#000" fill-opacity=".25"/><circle cx="104" cy="39" r="3" fill="#000" fill-opacity=".25"/><circle cx="112" cy="39" r="3" fill="#000" fill-opacity=".25"/><circle cx="120" cy="39" r="3" fill="#000" fill-opacity=".25"/><circle cx="4" cy="32" r="2" fill="#000" fill-opacity=".25"/><circle cx="12" cy="32" r="2" fill="#000" fill-opacity=".25"/><circle cx="20" cy="32" r="2" fill="#000" fill-opacity=".25"/><circle cx="28" cy="32" r="2" fill="#000" fill-opacity=".25"/><circle cx="36" cy="32" r="2" fill="#000" fill-opacity=".25"/><circle cx="44" cy="32" r="2" fill="#000" fill-opacity=".25"/><circle cx="52" cy="32" r="2" fill="#000" fill-opacity=".25"/><circle cx="60" cy="32" r="2" fill="#000" fill-opacity=".25"/><circle cx="68" cy="32" r="2" fill="#000" fill-opacity=".25"/><circle cx="76" cy="32" r="2" fill="#000" fill-opacity=".25"/><circle cx="84" cy="32" r="2" fill="#000" fill-opacity=".25"/><circle cx="92" cy="32" r="2" fill="#000" fill-opacity=".25"/><circle cx="100" cy="32" r="2" fill="#000" fill-opacity=".25"/><circle cx="108" cy="32" r="2" fill="#000" fill-opacity=".25"/><circle cx="116" cy="32" r="2" fill="#000" fill-opacity=".25"/><circle cx="124" cy="32" r="2" fill="#000" fill-opacity=".25"/><circle cx="8" cy="53" r="3" fill="#000" fill-opacity=".25"/><circle cx="16" cy="53" r="3" fill="#000" fill-opacity=".25"/><circle cx="24" cy="53" r="3" fill="#000" fill-opacity=".25"/><circle cx="32" cy="53" r="3" fill="#000" fill-opacity=".25"/><circle cx="40" cy="53" r="3" fill="#000" fill-opacity=".25"/><circle cx="48" cy="53" r="3" fill="#000" fill-opacity=".25"/><circle cx="56" cy="53" r="3" fill="#000" fill-opacity=".25"/><circle cx="64" cy="53" r="3" fill="#000" fill-opacity=".25"/><circle cx="72" cy="53" r="3" fill="#000" fill-opacity=".25"/><circle cx="80" cy="53" r="3" fill="#000" fill-opacity=".25"/><circle cx="88" cy="53" r="3" fill="#000" fill-opacity=".25"/><circle cx="96" cy="53" r="3" fill="#000" fill-opacity=".25"/><circle cx="104" cy="53" r="3" fill="#000" fill-opacity=".25"/><circle cx="112" cy="53" r="3" fill="#000" fill-opacity=".25"/><circle cx="120" cy="53" r="3" fill="#000" fill-opacity=".25"/><circle cx="4" cy="46" r="2" fill="#000" fill-opacity=".25"/><circle cx="12" cy="46" r="2" fill="#000" fill-opacity=".25"/><circle cx="20" cy="46" r="2" fill="#000" fill-opacity=".25"/><circle cx="28" cy="46" r="2" fill="#000" fill-opacity=".25"/><circle cx="36" cy="46" r="2" fill="#000" fill-opacity=".25"/><circle cx="44" cy="46" r="2" fill="#000" fill-opacity=".25"/><circle cx="52" cy="46" r="2" fill="#000" fill-opacity=".25"/><circle cx="60" cy="46" r="2" fill="#000" fill-opacity=".25"/><circle cx="68" cy="46" r="2" fill="#000" fill-opacity=".25"/><circle cx="76" cy="46" r="2" fill="#000" fill-opacity=".25"/><circle cx="84" cy="46" r="2" fill="#000" fill-opacity=".25"/><circle cx="92" cy="46" r="2" fill="#000" fill-opacity=".25"/><circle cx="100" cy="46" r="2" fill="#000" fill-opacity=".25"/><circle cx="108" cy="46" r="2" fill="#000" fill-opacity=".25"/><circle cx="116" cy="46" r="2" fill="#000" fill-opacity=".25"/><circle cx="124" cy="46" r="2" fill="#000" fill-opacity=".25"/><circle cx="8" cy="67" r="3" fill="#000" fill-opacity=".25"/><circle cx="16" cy="67" r="3" fill="#000" fill-opacity=".25"/><circle cx="24" cy="67" r="3" fill="#000" fill-opacity=".25"/><circle cx="32" cy="67" r="3" fill="#000" fill-opacity=".25"/><circle cx="40" cy="67" r="3" fill="#000" fill-opacity=".25"/><circle cx="48" cy="67" r="3" fill="#000" fill-opacity=".25"/><circle cx="56" cy="67" r="3" fill="#000" fill-opacity=".25"/><circle cx="64" cy="67" r="3" fill="#000" fill-opacity=".25"/><circle cx="72" cy="67" r="3" fill="#000" fill-opacity=".25"/><circle cx="80" cy="67" r="3" fill="#000" fill-opacity=".25"/><circle cx="88" cy="67" r="3" fill="#000" fill-opacity=".25"/><circle cx="96" cy="67" r="3" fill="#000" fill-opacity=".25"/><circle cx="104" cy="67" r="3" fill="#000" fill-opacity=".25"/><circle cx="112" cy="67" r="3" fill="#000" fill-opacity=".25"/><circle cx="120" cy="67" r="3" fill="#000" fill-opacity=".25"/><circle cx="4" cy="60" r="2" fill="#000" fill-opacity=".25"/><circle cx="12" cy="60" r="2" fill="#000" fill-opacity=".25"/><circle cx="20" cy="60" r="2" fill="#000" fill-opacity=".25"/><circle cx="28" cy="60" r="2" fill="#000" fill-opacity=".25"/><circle cx="36" cy="60" r="2" fill="#000" fill-opacity=".25"/><circle cx="44" cy="60" r="2" fill="#000" fill-opacity=".25"/><circle cx="52" cy="60" r="2" fill="#000" fill-opacity=".25"/><circle cx="60" cy="60" r="2" fill="#000" fill-opacity=".25"/><circle cx="68" cy="60" r="2" fill="#000" fill-opacity=".25"/><circle cx="76" cy="60" r="2" fill="#000" fill-opacity=".25"/><circle cx="84" cy="60" r="2" fill="#000" fill-opacity=".25"/><circle cx="92" cy="60" r="2" fill="#000" fill-opacity=".25"/><circle cx="100" cy="60" r="2" fill="#000" fill-opacity=".25"/><circle cx="108" cy="60" r="2" fill="#000" fill-opacity=".25"/><circle cx="116" cy="60" r="2" fill="#000" fill-opacity=".25"/><circle cx="124" cy="60" r="2" fill="#000" fill-opacity=".25"/><circle cx="8" cy="81" r="3" fill="#000" fill-opacity=".25"/><circle cx="16" cy="81" r="3" fill="#000" fill-opacity=".25"/><circle cx="24" cy="81" r="3" fill="#000" fill-opacity=".25"/><circle cx="32" cy="81" r="3" fill="#000" fill-opacity=".25"/><circle cx="40" cy="81" r="3" fill="#000" fill-opacity=".25"/><circle cx="48" cy="81" r="3" fill="#000" fill-opacity=".25"/><circle cx="56" cy="81" r="3" fill="#000" fill-opacity=".25"/><circle cx="64" cy="81" r="3" fill="#000" fill-opacity=".25"/><circle cx="72" cy="81" r="3" fill="#000" fill-opacity=".25"/><circle cx="80" cy="81" r="3" fill="#000" fill-opacity=".25"/><circle cx="88" cy="81" r="3" fill="#000" fill-opacity=".25"/><circle cx="96" cy="81" r="3" fill="#000" fill-opacity=".25"/><circle cx="104" cy="81" r="3" fill="#000" fill-opacity=".25"/><circle cx="112" cy="81" r="3" fill="#000" fill-opacity=".25"/><circle cx="120" cy="81" r="3" fill="#000" fill-opacity=".25"/><circle cx="4" cy="74" r="2" fill="#000" fill-opacity=".25"/><circle cx="12" cy="74" r="2" fill="#000" fill-opacity=".25"/><circle cx="20" cy="74" r="2" fill="#000" fill-opacity=".25"/><circle cx="28" cy="74" r="2" fill="#000" fill-opacity=".25"/><circle cx="36" cy="74" r="2" fill="#000" fill-opacity=".25"/><circle cx="44" cy="74" r="2" fill="#000" fill-opacity=".25"/><circle cx="52" cy="74" r="2" fill="#000" fill-opacity=".25"/><circle cx="60" cy="74" r="2" fill="#000" fill-opacity=".25"/><circle cx="68" cy="74" r="2" fill="#000" fill-opacity=".25"/><circle cx="76" cy="74" r="2" fill="#000" fill-opacity=".25"/><circle cx="84" cy="74" r="2" fill="#000" fill-opacity=".25"/><circle cx="92" cy="74" r="2" fill="#000" fill-opacity=".25"/><circle cx="100" cy="74" r="2" fill="#000" fill-opacity=".25"/><circle cx="108" cy="74" r="2" fill="#000" fill-opacity=".25"/><circle cx="116" cy="74" r="2" fill="#000" fill-opacity=".25"/><circle cx="124" cy="74" r="2" fill="#000" fill-opacity=".25"/><circle cx="8" cy="95" r="3" fill="#000" fill-opacity=".25"/><circle cx="16" cy="95" r="3" fill="#000" fill-opacity=".25"/><circle cx="24" cy="95" r="3" fill="#000" fill-opacity=".25"/><circle cx="32" cy="95" r="3" fill="#000" fill-opacity=".25"/><circle cx="40" cy="95" r="3" fill="#000" fill-opacity=".25"/><circle cx="48" cy="95" r="3" fill="#000" fill-opacity=".25"/><circle cx="56" cy="95" r="3" fill="#000" fill-opacity=".25"/><circle cx="64" cy="95" r="3" fill="#000" fill-opacity=".25"/><circle cx="72" cy="95" r="3" fill="#000" fill-opacity=".25"/><circle cx="80" cy="95" r="3" fill="#000" fill-opacity=".25"/><circle cx="88" cy="95" r="3" fill="#000" fill-opacity=".25"/><circle cx="96" cy="95" r="3" fill="#000" fill-opacity=".25"/><circle cx="104" cy="95" r="3" fill="#000" fill-opacity=".25"/><circle cx="112" cy="95" r="3" fill="#000" fill-opacity=".25"/><circle cx="120" cy="95" r="3" fill="#000" fill-opacity=".25"/><circle cx="4" cy="88" r="2" fill="#000" fill-opacity=".25"/><circle cx="12" cy="88" r="2" fill="#000" fill-opacity=".25"/><circle cx="20" cy="88" r="2" fill="#000" fill-opacity=".25"/><circle cx="28" cy="88" r="2" fill="#000" fill-opacity=".25"/><circle cx="36" cy="88" r="2" fill="#000" fill-opacity=".25"/><circle cx="44" cy="88" r="2" fill="#000" fill-opacity=".25"/><circle cx="52" cy="88" r="2" fill="#000" fill-opacity=".25"/><circle cx="60" cy="88" r="2" fill="#000" fill-opacity=".25"/><circle cx="68" cy="88" r="2" fill="#000" fill-opacity=".25"/><circle cx="76" cy="88" r="2" fill="#000" fill-opacity=".25"/><circle cx="84" cy="88" r="2" fill="#000" fill-opacity=".25"/><circle cx="92" cy="88" r="2" fill="#000" fill-opacity=".25"/><circle cx="100" cy="88" r="2" fill="#000" fill-opacity=".25"/><circle cx="108" cy="88" r="2" fill="#000" fill-opacity=".25"/><circle cx="116" cy="88" r="2" fill="#000" fill-opacity=".25"/><circle cx="124" cy="88" r="2" fill="#000" fill-opacity=".25"/><circle cx="8" cy="109" r="3" fill="#000" fill-opacity=".25"/><circle cx="16" cy="109" r="3" fill="#000" fill-opacity=".25"/><circle cx="24" cy="109" r="3" fill="#000" fill-opacity=".25"/><circle cx="32" cy="109" r="3" fill="#000" fill-opacity=".25"/><circle cx="40" cy="109" r="3" fill="#000" fill-opacity=".25"/><circle cx="48" cy="109" r="3" fill="#000" fill-opacity=".25"/><circle cx="56" cy="109" r="3" fill="#000" fill-opacity=".25"/><circle cx="64" cy="109" r="3" fill="#000" fill-opacity=".25"/><circle cx="72" cy="109" r="3" fill="#000" fill-opacity=".25"/><circle cx="80" cy="109" r="3" fill="#000" fill-opacity=".25"/><circle cx="88" cy="109" r="3" fill="#000" fill-opacity=".25"/><circle cx="96" cy="109" r="3" fill="#000" fill-opacity=".25"/><circle cx="104" cy="109" r="3" fill="#000" fill-opacity=".25"/><circle cx="112" cy="109" r="3" fill="#000" fill-opacity=".25"/><circle cx="120" cy="109" r="3" fill="#000" fill-opacity=".25"/><circle cx="4" cy="102" r="2" fill="#000" fill-opacity=".25"/><circle cx="12" cy="102" r="2" fill="#000" fill-opacity=".25"/><circle cx="20" cy="102" r="2" fill="#000" fill-opacity=".25"/><circle cx="28" cy="102" r="2" fill="#000" fill-opacity=".25"/><circle cx="36" cy="102" r="2" fill="#000" fill-opacity=".25"/><circle cx="44" cy="102" r="2" fill="#000" fill-opacity=".25"/><circle cx="52" cy="102" r="2" fill="#000" fill-opacity=".25"/><circle cx="60" cy="102" r="2" fill="#000" fill-opacity=".25"/><circle cx="68" cy="102" r="2" fill="#000" fill-opacity=".25"/><circle cx="76" cy="102" r="2" fill="#000" fill-opacity=".25"/><circle cx="84" cy="102" r="2" fill="#000" fill-opacity=".25"/><circle cx="92" cy="102" r="2" fill="#000" fill-opacity=".25"/><circle cx="100" cy="102" r="2" fill="#000" fill-opacity=".25"/><circle cx="108" cy="102" r="2" fill="#000" fill-opacity=".25"/><circle cx="116" cy="102" r="2" fill="#000" fill-opacity=".25"/><circle cx="124" cy="102" r="2" fill="#000" fill-opacity=".25"/><circle cx="8" cy="123" r="3" fill="#000" fill-opacity=".25"/><circle cx="16" cy="123" r="3" fill="#000" fill-opacity=".25"/><circle cx="24" cy="123" r="3" fill="#000" fill-opacity=".25"/><circle cx="32" cy="123" r="3" fill="#000" fill-opacity=".25"/><circle cx="40" cy="123" r="3" fill="#000" fill-opacity=".25"/><circle cx="48" cy="123" r="3" fill="#000" fill-opacity=".25"/><circle cx="56" cy="123" r="3" fill="#000" fill-opacity=".25"/><circle cx="64" cy="123" r="3" fill="#000" fill-opacity=".25"/><circle cx="72" cy="123" r="3" fill="#000" fill-opacity=".25"/><circle cx="80" cy="123" r="3" fill="#000" fill-opacity=".25"/><circle cx="88" cy="123" r="3" fill="#000" fill-opacity=".25"/><circle cx="96" cy="123" r="3" fill="#000" fill-opacity=".25"/><circle cx="104" cy="123" r="3" fill="#000" fill-opacity=".25"/><circle cx="112" cy="123" r="3" fill="#000" fill-opacity=".25"/><circle cx="120" cy="123" r="3" fill="#000" fill-opacity=".25"/><circle cx="4" cy="116" r="2" fill="#000" fill-opacity=".25"/><circle cx="12" cy="116" r="2" fill="#000" fill-opacity=".25"/><circle cx="20" cy="116" r="2" fill="#000" fill-opacity=".25"/><circle cx="28" cy="116" r="2" fill="#000" fill-opacity=".25"/><circle cx="36" cy="116" r="2" fill="#000" fill-opacity=".25"/><circle cx="44" cy="116" r="2" fill="#000" fill-opacity=".25"/><circle cx="52" cy="116" r="2" fill="#000" fill-opacity=".25"/><circle cx="60" cy="116" r="2" fill="#000" fill-opacity=".25"/><circle cx="68" cy="116" r="2" fill="#000" fill-opacity=".25"/><circle cx="76" cy="116" r="2" fill="#000" fill-opacity=".25"/><circle cx="84" cy="116" r="2" fill="#000" fill-opacity=".25"/><circle cx="92" cy="116" r="2" fill="#000" fill-opacity=".25"/><circle cx="100" cy="116" r="2" fill="#000" fill-opacity=".25"/><circle cx="108" cy="116" r="2" fill="#000" fill-opacity=".25"/><circle cx="116" cy="116" r="2" fill="#000" fill-opacity=".25"/><circle cx="124" cy="116" r="2" fill="#000" fill-opacity=".25"/></svg>